<!-- icon666.com - MILLIONS vector ICONS FREE --><svg version="1.1" id="Layer_1" xmlns="http://www.w3.org/2000/svg" xmlns:xlink="http://www.w3.org/1999/xlink" x="0px" y="0px" viewBox="0 0 512 512" style="enable-background:new 0 0 512 512;" xml:space="preserve"><g><g><g><path d="M466.536,312.689h-27.202c-3.06,0-4.164,2.076-2.454,4.615l12.946,19.21c1.708,2.539,4.509,2.539,6.219,0l12.945-19.21 C470.702,314.765,469.598,312.689,466.536,312.689z"></path><path d="M497.107,0H14.894c-4.613,0-8.35,3.739-8.35,8.35V503.65c0,4.612,3.738,8.35,8.35,8.35h482.212 c4.613,0,8.35-3.739,8.35-8.35V8.35C505.457,3.739,501.72,0,497.107,0z M247.651,495.299h-0.001H114.264V111.607h133.387V495.299 z M397.736,495.299H264.351V111.607h133.385V495.299z M488.757,495.299h-74.32V103.257c0-4.612-3.739-8.35-8.35-8.35H105.914 c-4.613,0-8.35,3.739-8.35,8.35v392.042H23.246V16.701h465.511V495.299z"></path><path d="M456.046,265.179c-1.71-2.537-4.511-2.537-6.219,0l-12.946,19.212c-1.71,2.536-0.606,4.613,2.454,4.613h27.202 c3.062,0,4.166-2.076,2.455-4.613L456.046,265.179z"></path><path d="M427.483,363.231h50.907c4.613,0,8.35-3.739,8.35-8.35V246.814c0-4.612-3.738-8.35-8.35-8.35h-50.907 c-4.613,0-8.35,3.739-8.35,8.35V354.88C419.133,359.492,422.87,363.231,427.483,363.231z M435.833,255.164h34.206v91.366h-34.206 V255.164z"></path><path d="M217.591,90.708h76.821c4.613,0,8.35-3.739,8.35-8.35V28.151c0-4.612-3.738-8.35-8.35-8.35h-76.821 c-4.613,0-8.35,3.739-8.35,8.35v54.207C209.241,86.969,212.98,90.708,217.591,90.708z M225.942,36.501h60.12v37.506h-60.12 V36.501z"></path><path d="M257.852,38.63h-0.092c-0.974,0-1.993,0.232-3.337,0.601l-4.589,1.345c-1.436,0.418-2.364,1.622-2.364,3.06 c0,1.668,1.437,3.058,3.106,3.058c0.371,0,0.881-0.092,1.251-0.185l2.503-0.649v22.433c0,1.947,1.575,3.523,3.522,3.523 c1.947,0,3.523-1.575,3.523-3.523V42.151C261.375,40.205,259.799,38.63,257.852,38.63z"></path></g></g></g></svg>